<?xml version="1.0" encoding="utf-8"?>
<!DOCTYPE svg PUBLIC "-//W3C//DTD SVG 20010904//EN" "http://www.w3.org/TR/2001/REC-SVG-20010904/DTD/svg10.dtd">
<svg version="1.0" xmlns="http://www.w3.org/2000/svg" width="115pt" height="31pt" viewBox="0 0 115 31" style="" preserveAspectRatio="xMidYMid meet">
<g fill="#3E4D53FF" stroke="#3E4D53FF">
<path d="M 51.000 10.441 C 51.000 15.304 49.383 17.244 47.488 14.653 C 45.956 12.557 43.398 12.521 42.606 14.583 C 41.759 16.790 39.669 15.835 38.982 12.926 C 38.569 11.172 37.729 10.500 35.955 10.500 C 33.866 10.500 33.548 10.909 33.822 13.250 C 34.081 15.468 33.743 16.000 32.072 16.000 C 30.662 16.000 30.000 16.643 30.000 18.013 C 30.000 19.996 30.505 20.023 63.250 19.763 L 96.500 19.500 96.813 16.250 C 97.093 13.347 96.853 13.000 94.563 13.000 C 92.951 13.000 92.000 13.557 92.000 14.500 C 92.000 17.247 87.247 16.290 85.797 13.250 C 84.717 10.985 83.737 10.446 80.243 10.193 C 76.306 9.907 76.000 10.064 76.000 12.376 C 76.000 14.326 76.597 14.958 78.750 15.284 C 80.449 15.541 79.684 15.758 76.750 15.850 C 73.128 15.964 72.000 15.644 72.000 14.500 C 72.000 12.485 67.394 12.530 66.618 14.553 C 66.162 15.742 64.790 16.034 60.761 15.803 L 55.500 15.500 55.195 10.750 C 54.943 6.816 54.556 6.000 52.945 6.000 C 51.310 6.000 51.000 6.708 51.000 10.441 "/></g>
<g fill="#3E4D53FF" stroke="#3E4D53FF">
<path d="M 102.743 10.084 C 101.389 10.873 101.217 11.537 101.993 12.988 C 103.440 15.692 103.288 16.000 100.500 16.000 C 98.667 16.000 98.000 16.533 98.000 18.000 C 98.000 19.701 98.667 20.000 102.465 20.000 C 108.144 20.000 109.422 18.079 107.288 12.750 C 105.666 8.699 105.394 8.540 102.743 10.084 "/></g>
<g fill="#3E4D53FF" stroke="#3E4D53FF">
<path d="M 88.000 24.000 C 88.000 25.667 88.667 26.000 92.000 26.000 C 95.333 26.000 96.000 25.667 96.000 24.000 C 96.000 22.333 95.333 22.000 92.000 22.000 C 88.667 22.000 88.000 22.333 88.000 24.000 "/></g>
<g fill="#3E4D53FF" stroke="#3E4D53FF">
<path d="M 42.359 6.507 C 42.011 7.414 42.383 8.812 43.186 9.614 C 45.187 11.615 48.188 10.321 47.803 7.623 C 47.424 4.965 43.277 4.115 42.359 6.507 "/></g>
<g fill="#3E4D53FF" stroke="#3E4D53FF">
<path d="M 66.000 24.000 C 66.000 25.619 66.667 26.000 69.500 26.000 C 72.333 26.000 73.000 25.619 73.000 24.000 C 73.000 22.381 72.333 22.000 69.500 22.000 C 66.667 22.000 66.000 22.381 66.000 24.000 "/></g>
<g fill="#3E4D53FF" stroke="#3E4D53FF">
<path d="M 79.390 22.426 C 78.480 24.797 79.767 27.191 81.747 26.810 C 82.854 26.597 83.500 25.561 83.500 24.000 C 83.500 21.149 80.344 19.941 79.390 22.426 "/></g>
</svg>
